<svg width="415" height="234" viewBox="0 0 415 234" fill="none" xmlns="http://www.w3.org/2000/svg">
<path d="M110.401 114.35C82.5659 114.35 60.001 91.7847 60.001 63.9496C60.001 36.1144 82.5659 13.5496 110.401 13.5496C138.236 13.5496 160.801 36.1144 160.801 63.9496C160.801 91.7847 138.236 114.35 110.401 114.35Z" fill="#FF9900" fill-opacity="0.62"/>
<g filter="url(#filter0_d_10:2)">
<path fill-rule="evenodd" clip-rule="evenodd" d="M60.2536 64.5688H58.9199C58.9199 35.9459 82.2158 12.7491 110.937 12.7491C139.676 12.7491 162.963 35.9459 162.963 64.5688C162.963 93.1926 139.676 116.389 110.937 116.389C82.2158 116.389 58.9199 93.1926 58.9199 64.5688H61.5964C61.5964 78.1417 67.1117 90.4178 76.0426 99.3162C84.9825 108.212 97.3108 113.711 110.937 113.712C124.572 113.711 136.9 108.212 145.84 99.3162C154.771 90.4178 160.286 78.1417 160.286 64.5688C160.286 50.9967 154.771 38.7206 145.84 29.8231C136.9 20.9274 124.572 15.4274 110.937 15.4274C97.3108 15.4274 84.9825 20.9274 76.0426 29.8231C67.1117 38.7206 61.5964 50.9967 61.5964 64.5688H60.2536Z" fill="#FF6B00"/>
</g>
<path fill-rule="evenodd" clip-rule="evenodd" d="M73.1212 108.999L14.9039 167.582V207.197H12.2273V166.478L71.2197 107.112L73.1212 108.999Z" fill="#FF6B00"/>
<path fill-rule="evenodd" clip-rule="evenodd" d="M415 83.6515H409.554V44.3416H415V83.6515Z" fill="#FF6B00"/>
<path fill-rule="evenodd" clip-rule="evenodd" d="M315.553 100.974V98.5886H157.696C156.697 99.9798 156.57 100.221 155 100.974H315.553Z" fill="#FF6B00"/>
<path fill-rule="evenodd" clip-rule="evenodd" d="M315.752 27.4346V29.8196H157.895C156.896 28.4283 156.769 28.1873 155.199 27.4346H315.752Z" fill="#FF6B00"/>
<path fill-rule="evenodd" clip-rule="evenodd" d="M397.027 100.974H322.742V98.5886H397.027V100.974Z" fill="#FF6B00"/>
<path fill-rule="evenodd" clip-rule="evenodd" d="M397.027 29.8195H322.742V27.4344H397.027V29.8195Z" fill="#FF6B00"/>
<path fill-rule="evenodd" clip-rule="evenodd" d="M415 90.2384H409.571V95.6192H404.142V101H415V90.2384Z" fill="#FF6B00"/>
<path fill-rule="evenodd" clip-rule="evenodd" d="M404.142 27V32.3904H409.571V37.7607H415V27H404.142Z" fill="#FF6B00"/>
<path d="M415 27H385V57H415V27Z" fill="#FF6B00"/>
<g filter="url(#filter1_d_10:2)">
<path fill-rule="evenodd" clip-rule="evenodd" d="M87.9377 11.9524C85.9731 12.8031 84.0265 13.7647 82.125 14.8578C80.2235 15.951 78.4121 17.1451 76.6818 18.4212L75.9878 17.4866C77.7542 16.1853 79.6016 14.9669 81.5392 13.8503C83.4858 12.7337 85.4684 11.7532 87.4781 10.8854L87.9377 11.9524Z" fill="#FF6B00"/>
<path fill-rule="evenodd" clip-rule="evenodd" d="M133.944 117.197C135.918 116.336 137.855 115.374 139.757 114.281C141.658 113.177 143.47 111.982 145.2 110.715L145.885 111.654C144.127 112.943 142.28 114.161 140.342 115.287L140.333 115.288C138.396 116.405 136.413 117.386 134.413 118.262L133.944 117.197Z" fill="#FF6B00"/>
<path fill-rule="evenodd" clip-rule="evenodd" d="M64.5957 30.4584C63.325 32.1824 62.1174 33.9857 61.027 35.8764C59.9275 37.7698 58.9632 39.7029 58.0981 41.6675L57.0347 41.2034C57.9088 39.2 58.9001 37.2264 60.0176 35.2933C61.1441 33.3602 62.3697 31.5218 63.6585 29.769L64.5957 30.4584Z" fill="#FF6B00"/>
<path fill-rule="evenodd" clip-rule="evenodd" d="M157.285 98.6782C158.555 96.956 159.754 95.1536 160.853 93.2611C161.953 91.3695 162.917 89.4364 163.782 87.4691L164.846 87.9359C163.972 89.9384 162.98 91.912 161.863 93.845C160.736 95.7772 159.511 97.6157 158.213 99.3703L157.285 98.6782Z" fill="#FF6B00"/>
<path fill-rule="evenodd" clip-rule="evenodd" d="M53.6837 58.1C53.4404 60.2277 53.3052 62.3843 53.3052 64.5688C53.3052 66.7551 53.4404 68.9107 53.6837 71.0385L52.5302 71.17C52.2778 69.0027 52.1426 66.8028 52.1426 64.5688C52.1426 62.3365 52.2778 60.1358 52.5302 57.9675L53.6837 58.1Z" fill="#FF6B00"/>
<path fill-rule="evenodd" clip-rule="evenodd" d="M168.197 71.0392C168.441 68.9106 168.576 66.754 168.576 64.5686C168.576 62.3841 168.441 60.2276 168.197 58.0981L169.36 57.9692C169.594 60.1366 169.738 62.3355 169.738 64.5686C169.738 66.8027 169.594 69.0025 169.36 71.1681L168.197 71.0392Z" fill="#FF6B00"/>
<path fill-rule="evenodd" clip-rule="evenodd" d="M58.1078 87.47C58.964 89.4364 59.9283 91.3695 61.0277 93.262C62.1272 95.1536 63.3258 96.956 64.6055 98.6782L63.6682 99.3703C62.3705 97.6156 61.1449 95.7772 60.0184 93.845C58.9009 91.912 57.9186 89.9384 57.0444 87.935L58.1078 87.47Z" fill="#FF6B00"/>
<path fill-rule="evenodd" clip-rule="evenodd" d="M163.782 41.6694C162.917 39.703 161.953 37.769 160.853 35.8774C159.754 33.9858 158.555 32.1825 157.285 30.4594L158.213 29.7682C159.511 31.5219 160.736 33.3612 161.863 35.2934C162.98 37.2274 163.972 39.2001 164.846 41.2016L163.782 41.6694Z" fill="#FF6B00"/>
<path fill-rule="evenodd" clip-rule="evenodd" d="M76.6816 110.715C78.4119 111.982 80.2233 113.177 82.1248 114.281C84.0263 115.374 85.9729 116.336 87.9375 117.197L87.4779 118.262C85.4682 117.386 83.4856 116.405 81.539 115.288V115.287C79.6014 114.161 77.754 112.943 75.9966 111.654L76.6816 110.715Z" fill="#FF6B00"/>
<path fill-rule="evenodd" clip-rule="evenodd" d="M145.199 18.4221C143.468 17.146 141.657 15.9609 139.755 14.856V14.8578C137.854 13.7647 135.916 12.8031 133.943 11.9524L134.402 10.8854C136.412 11.7532 138.395 12.7337 140.341 13.8494V13.8512C142.279 14.9768 144.126 16.1844 145.893 17.4866L145.199 18.4221Z" fill="#FF6B00"/>
<path fill-rule="evenodd" clip-rule="evenodd" d="M102.402 7.81053C100.276 8.13496 98.1489 8.56032 96.0221 9.12718C93.9043 9.69313 91.8495 10.3825 89.8399 11.163L89.4163 10.0797C91.462 9.28579 93.5618 8.58285 95.7247 8.00429C97.8875 7.42482 100.059 6.99134 102.222 6.6615L102.402 7.81053Z" fill="#FF6B00"/>
<path fill-rule="evenodd" clip-rule="evenodd" d="M119.489 121.328C121.616 121.003 123.742 120.578 125.86 120.011C127.987 119.445 130.042 118.756 132.033 117.975L132.457 119.058C130.429 119.853 128.33 120.556 126.158 121.135C123.995 121.714 121.823 122.147 119.66 122.477L119.489 121.328Z" fill="#FF6B00"/>
<path fill-rule="evenodd" clip-rule="evenodd" d="M75.0509 19.6666C73.3656 21.0049 71.7435 22.4324 70.1934 23.9798C68.6344 25.528 67.2015 27.1484 65.8587 28.821L64.9485 28.0928C66.3183 26.3914 67.7782 24.7386 69.3733 23.157C70.9504 21.5754 72.6177 20.119 74.3209 18.7573L75.0509 19.6666Z" fill="#FF6B00"/>
<path fill-rule="evenodd" clip-rule="evenodd" d="M146.84 109.472C148.516 108.134 150.139 106.706 151.698 105.158C153.248 103.61 154.681 101.99 156.023 100.317L156.934 101.046C155.564 102.747 154.104 104.4 152.518 105.981C150.932 107.563 149.273 109.019 147.561 110.382L146.84 109.472Z" fill="#FF6B00"/>
<path fill-rule="evenodd" clip-rule="evenodd" d="M57.3146 43.5592C56.5305 45.5571 55.8366 47.6028 55.2688 49.717C54.7011 51.8313 54.2685 53.9473 53.9531 56.066L52.7996 55.892C53.133 53.7355 53.5656 51.5753 54.1423 49.4151C54.7281 47.2541 55.4401 45.1678 56.2331 43.1356L57.3146 43.5592Z" fill="#FF6B00"/>
<path fill-rule="evenodd" clip-rule="evenodd" d="M164.567 85.5766C165.36 83.5804 166.045 81.5356 166.613 79.4214C167.181 77.3072 167.613 75.1912 167.928 73.0724L169.082 73.2473C168.749 75.4038 168.316 77.5622 167.739 79.7233C167.153 81.8843 166.451 83.9706 165.648 86.0037L164.567 85.5766Z" fill="#FF6B00"/>
<path fill-rule="evenodd" clip-rule="evenodd" d="M53.9441 73.0724C54.2685 75.1903 54.7011 77.3063 55.2688 79.4214C55.8366 81.5356 56.5305 83.5804 57.3146 85.5675L56.2331 85.9938C55.4311 83.9706 54.7281 81.8843 54.1423 79.7233C53.5656 77.5631 53.124 75.4038 52.7996 73.2473L53.9441 73.0724Z" fill="#FF6B00"/>
<path fill-rule="evenodd" clip-rule="evenodd" d="M167.928 56.066C167.613 53.9472 167.181 51.8312 166.613 49.7161C166.045 47.6019 165.36 45.558 164.567 43.561L165.648 43.1338C166.451 45.1669 167.153 47.2541 167.739 49.4151C168.316 51.5753 168.749 53.7355 169.082 55.8911L167.928 56.066Z" fill="#FF6B00"/>
<path fill-rule="evenodd" clip-rule="evenodd" d="M65.8587 100.317C67.2015 101.99 68.6344 103.609 70.1934 105.158C71.7435 106.706 73.3656 108.133 75.0509 109.473L74.3209 110.381C72.6177 109.019 70.9504 107.563 69.3733 105.981C67.7782 104.4 66.3183 102.747 64.9485 101.046L65.8587 100.317Z" fill="#FF6B00"/>
<path fill-rule="evenodd" clip-rule="evenodd" d="M156.023 28.821C154.681 27.1475 153.248 25.528 151.698 23.9807C150.139 22.4324 148.516 21.0049 146.84 19.6666L147.561 18.7573C149.273 20.119 150.932 21.5754 152.518 23.157C154.104 24.7386 155.564 26.3914 156.934 28.0928L156.023 28.821Z" fill="#FF6B00"/>
<path fill-rule="evenodd" clip-rule="evenodd" d="M89.8399 117.975C91.8495 118.756 93.9043 119.445 96.0221 120.011C98.1489 120.578 100.276 121.003 102.402 121.328L102.222 122.477C100.059 122.147 97.8875 121.714 95.7247 121.135C93.5618 120.556 91.462 119.853 89.4163 119.059L89.8399 117.975Z" fill="#FF6B00"/>
<path fill-rule="evenodd" clip-rule="evenodd" d="M132.033 11.1621C130.042 10.3825 127.978 9.69313 125.86 9.12718C123.742 8.56032 121.616 8.13496 119.489 7.81053L119.66 6.6615C121.823 6.99134 123.995 7.42482 126.158 8.00429C128.33 8.58285 130.42 9.28579 132.457 10.0797L132.033 11.1621Z" fill="#FF6B00"/>
<g filter="url(#filter2_d_10:2)">
<path fill-rule="evenodd" clip-rule="evenodd" d="M117.433 7.53654C115.306 7.29412 113.143 7.16254 110.936 7.16254C108.746 7.16254 106.574 7.29412 104.447 7.53654L104.312 6.38211C106.484 6.13428 108.701 6 110.936 6C113.189 6 115.396 6.13428 117.568 6.38211L117.433 7.53654Z" fill="#FF6B00"/>
</g>
<g filter="url(#filter3_d_10:2)">
<path fill-rule="evenodd" clip-rule="evenodd" d="M104.447 121.601C106.574 121.844 108.746 121.976 110.936 121.976C113.143 121.976 115.306 121.844 117.433 121.601L117.568 122.755C115.396 123.003 113.189 123.138 110.936 123.138C108.701 123.138 106.484 123.003 104.312 122.755L104.447 121.601Z" fill="#FF6B00"/>
</g>
</g>
<path d="M13.7996 233C6.73036 233 0.999609 227.269 0.999609 220.2C0.999609 213.131 6.73036 207.4 13.7996 207.4C20.8689 207.4 26.5996 213.131 26.5996 220.2C26.5996 227.269 20.8689 233 13.7996 233Z" stroke="#FF6B00" stroke-width="2"/>
<path d="M13.8004 226.8C10.1553 226.8 7.20039 223.845 7.20039 220.2C7.20039 216.555 10.1553 213.6 13.8004 213.6C17.4455 213.6 20.4004 216.555 20.4004 220.2C20.4004 223.845 17.4455 226.8 13.8004 226.8Z" fill="#FF6B00"/>
<path d="M190.556 42.136C190.28 41.44 189.584 40.372 188.936 39.592L188.228 39.94C188.864 40.744 189.536 41.836 189.8 42.544L190.556 42.136ZM182.384 48.232V44.716H184.124V43.936H182.384V42.676H183.752V41.908H180.608C181.244 41.188 181.724 40.444 182.072 39.796C182.756 40.432 183.5 41.344 183.884 41.92L184.46 41.2C184.016 40.576 183.08 39.628 182.324 38.968H181.532C181.148 39.916 180.404 41.128 179.348 42.04C179.516 42.148 179.792 42.436 179.912 42.616C180.044 42.496 180.176 42.376 180.296 42.244V42.676H181.604V43.936H179.684V44.716H181.604V48.376C180.824 48.532 180.116 48.652 179.564 48.748L179.768 49.552C181.016 49.312 182.744 48.964 184.352 48.616L184.304 47.86L182.384 48.232ZM179.948 45.556C180.188 46.264 180.392 47.176 180.428 47.788L181.088 47.596C181.028 47.008 180.824 46.096 180.572 45.4L179.948 45.556ZM183.356 47.668C183.56 47.104 183.824 46.216 184.052 45.472L183.344 45.256C183.224 45.916 182.972 46.876 182.78 47.476L183.356 47.668ZM185.432 39.616C185.156 40.564 184.664 41.524 184.076 42.148C184.28 42.268 184.64 42.496 184.796 42.628C185.36 41.932 185.924 40.864 186.26 39.796L185.432 39.616ZM185.696 46.768V45.484H189.032V46.768H185.696ZM189.032 43.492V44.728H185.696V43.492H189.032ZM189.884 42.712H187.712V38.956H186.86V42.712H184.832V49.9H185.696V47.512H189.032V48.868C189.032 49.024 188.972 49.072 188.816 49.072C188.66 49.084 188.12 49.084 187.556 49.06C187.664 49.288 187.796 49.672 187.832 49.912C188.624 49.912 189.14 49.888 189.464 49.756C189.788 49.612 189.884 49.336 189.884 48.88V42.712ZM200.156 46.984V48.736H194.084V46.984H200.156ZM193.196 49.936H194.084V49.468H200.156V49.936H201.068V46.252H193.196V49.936ZM193.988 43.888H196.724V44.788H193.988V43.888ZM196.724 41.776H193.988V40.972H196.724V41.776ZM196.724 43.252H193.988V42.412H196.724V43.252ZM197.6 44.788V43.888H200.972V43.252H197.6V42.412H200.936V41.776H197.6V40.972H201.524V40.288H197.732C197.912 39.952 198.104 39.568 198.284 39.196L197.372 38.956C197.264 39.34 197.048 39.856 196.844 40.288H194.336C194.54 39.928 194.72 39.568 194.876 39.208L194.024 38.932C193.448 40.312 192.476 41.656 191.444 42.544C191.636 42.7 191.96 43.06 192.08 43.24C192.44 42.904 192.8 42.508 193.148 42.064V45.496H202.052V44.788H197.6ZM207.176 44.836L207.056 44.008C206.66 44.14 206.264 44.272 205.868 44.392V42.184H207.152V41.368H205.868V38.968H205.04V41.368H203.54V42.184H205.04V44.644C204.416 44.836 203.84 45.016 203.384 45.136L203.612 46L205.04 45.532V48.88C205.04 49.06 204.98 49.096 204.836 49.096C204.692 49.108 204.224 49.108 203.708 49.096C203.828 49.336 203.936 49.708 203.972 49.912C204.716 49.924 205.172 49.888 205.46 49.756C205.76 49.612 205.868 49.36 205.868 48.88V45.268L207.176 44.836ZM209.288 40.996H207.32V41.812H209.288V43.492H207.404V44.296H209.288C209.276 44.836 209.252 45.352 209.18 45.844C208.268 46.144 207.392 46.42 206.732 46.588L207.08 47.368C207.668 47.152 208.34 46.912 209.012 46.66C208.712 47.692 208.136 48.592 207.02 49.324C207.212 49.468 207.512 49.756 207.644 49.924C209.816 48.472 210.08 46.372 210.08 43.984V38.956H209.288V40.996ZM214.472 46.084H212.18V44.296H214.148V43.492H212.18V41.812H214.268V40.996H212.18V38.956H211.328V49.9H212.18V46.9H214.472V46.084ZM226.076 39.688H220.22V40.528H226.076V39.688ZM218.216 38.956C217.616 39.808 216.464 40.888 215.468 41.56C215.624 41.728 215.864 42.076 215.996 42.268C217.064 41.512 218.288 40.348 219.068 39.292L218.216 38.956ZM218.708 41.512C217.88 42.868 216.584 44.248 215.348 45.124C215.528 45.304 215.84 45.688 215.972 45.868C216.416 45.52 216.872 45.088 217.328 44.62V49.948H218.216V43.636C218.708 43.048 219.164 42.436 219.536 41.824L218.708 41.512ZM226.424 42.964H219.704V43.816H223.712V48.76C223.712 48.964 223.64 49.012 223.412 49.024C223.184 49.036 222.392 49.036 221.54 49.012C221.672 49.264 221.792 49.636 221.828 49.876C223.004 49.876 223.676 49.876 224.084 49.744C224.48 49.6 224.612 49.324 224.612 48.772V43.816H226.424V42.964Z" fill="white" fill-opacity="0.6"/>
<defs>
<filter id="filter0_d_10:2" x="46.9199" y="0.749146" width="128.043" height="127.64" filterUnits="userSpaceOnUse" color-interpolation-filters="sRGB">
<feFlood flood-opacity="0" result="BackgroundImageFix"/>
<feColorMatrix in="SourceAlpha" type="matrix" values="0 0 0 0 0 0 0 0 0 0 0 0 0 0 0 0 0 0 127 0" result="hardAlpha"/>
<feOffset/>
<feGaussianBlur stdDeviation="6"/>
<feColorMatrix type="matrix" values="0 0 0 0 1 0 0 0 0 0.419608 0 0 0 0 0 0 0 0 1 0"/>
<feBlend mode="normal" in2="BackgroundImageFix" result="effect1_dropShadow_10:2"/>
<feBlend mode="normal" in="SourceGraphic" in2="effect1_dropShadow_10:2" result="shape"/>
</filter>
<filter id="filter1_d_10:2" x="48.1426" y="2" width="125.595" height="125.138" filterUnits="userSpaceOnUse" color-interpolation-filters="sRGB">
<feFlood flood-opacity="0" result="BackgroundImageFix"/>
<feColorMatrix in="SourceAlpha" type="matrix" values="0 0 0 0 0 0 0 0 0 0 0 0 0 0 0 0 0 0 127 0" result="hardAlpha"/>
<feOffset/>
<feGaussianBlur stdDeviation="2"/>
<feColorMatrix type="matrix" values="0 0 0 0 0.0941176 0 0 0 0 0.996078 0 0 0 0 0.996078 0 0 0 0.8 0"/>
<feBlend mode="normal" in2="BackgroundImageFix" result="effect1_dropShadow_10:2"/>
<feBlend mode="normal" in="SourceGraphic" in2="effect1_dropShadow_10:2" result="shape"/>
</filter>
<filter id="filter2_d_10:2" x="100.312" y="2" width="21.2561" height="9.5365" filterUnits="userSpaceOnUse" color-interpolation-filters="sRGB">
<feFlood flood-opacity="0" result="BackgroundImageFix"/>
<feColorMatrix in="SourceAlpha" type="matrix" values="0 0 0 0 0 0 0 0 0 0 0 0 0 0 0 0 0 0 127 0" result="hardAlpha"/>
<feOffset/>
<feGaussianBlur stdDeviation="2"/>
<feColorMatrix type="matrix" values="0 0 0 0 0.0941176 0 0 0 0 0.996078 0 0 0 0 0.996078 0 0 0 1 0"/>
<feBlend mode="normal" in2="BackgroundImageFix" result="effect1_dropShadow_10:2"/>
<feBlend mode="normal" in="SourceGraphic" in2="effect1_dropShadow_10:2" result="shape"/>
</filter>
<filter id="filter3_d_10:2" x="100.312" y="117.601" width="21.2561" height="9.53699" filterUnits="userSpaceOnUse" color-interpolation-filters="sRGB">
<feFlood flood-opacity="0" result="BackgroundImageFix"/>
<feColorMatrix in="SourceAlpha" type="matrix" values="0 0 0 0 0 0 0 0 0 0 0 0 0 0 0 0 0 0 127 0" result="hardAlpha"/>
<feOffset/>
<feGaussianBlur stdDeviation="2"/>
<feColorMatrix type="matrix" values="0 0 0 0 0.0941176 0 0 0 0 0.996078 0 0 0 0 0.996078 0 0 0 1 0"/>
<feBlend mode="normal" in2="BackgroundImageFix" result="effect1_dropShadow_10:2"/>
<feBlend mode="normal" in="SourceGraphic" in2="effect1_dropShadow_10:2" result="shape"/>
</filter>
</defs>
</svg>
