<?xml version="1.0" encoding="utf-8"?>
<!-- Generator: Adobe Illustrator 24.0.0, SVG Export Plug-In . SVG Version: 6.00 Build 0)  -->
<svg version="1.1" id="圖層_1" xmlns="http://www.w3.org/2000/svg" xmlns:xlink="http://www.w3.org/1999/xlink" x="0px" y="0px"
	 viewBox="0 0 289 59" style="enable-background:new 0 0 289 59;" xml:space="preserve">
<style type="text/css">
	.st0{fill:#24AA38;}
	.st1{fill:white;}
</style>
<g>
	<g>
		<polygon class="st0" points="12.9,10.4 22.3,10.4 22.3,22 32.3,10.4 44.8,10.5 33.6,22 45.3,41.1 33.6,41.1 27.2,28.4 22.3,33.6 
			22.3,41 12.8,41 		"/>
		<path class="st0" d="M66.9,41.1l-7.9,0l0-3.6c-1.2,1.5-2.4,2.5-3.6,3.1c-1.2,0.6-2.7,0.9-4.4,0.9c-2.3,0-4.2-0.7-5.5-2.1
			c-1.3-1.4-2-3.6-2-6.5l0-14.1l8.5,0l0,12.2c0,1.4,0.2,2.4,0.8,3c0.5,0.6,1.2,0.9,2.2,0.9c1,0,1.8-0.4,2.5-1.2c0.6-0.8,1-2.2,1-4.2
			l0-10.7l8.5,0L66.9,41.1z"/>
		<path class="st0"  d="M67.8,30.1c0-3.4,1.2-6.2,3.4-8.4c2.3-2.2,5.4-3.3,9.3-3.3c4.4,0,7.8,1.3,10.1,3.9c1.8,2.1,2.7,4.6,2.7,7.7
			c0,3.4-1.1,6.2-3.4,8.4c-2.3,2.2-5.4,3.3-9.4,3.2c-3.6,0-6.4-0.9-8.6-2.7C69.1,36.7,67.8,33.8,67.8,30.1 M76.3,30.1
			c0,2,0.4,3.4,1.2,4.4c0.8,0.9,1.8,1.4,3,1.4c1.2,0,2.2-0.5,3-1.4c0.8-0.9,1.2-2.4,1.2-4.5c0-1.9-0.4-3.4-1.2-4.3
			c-0.8-0.9-1.8-1.4-2.9-1.4c-1.2,0-2.3,0.5-3.1,1.4C76.8,26.7,76.3,28.2,76.3,30.1"/>
		<path class="st1" d="M94.8,10.6l17.7,0c3,0,5.2,0.7,6.8,2.2c1.6,1.5,2.4,3.3,2.4,5.4c0,1.8-0.6,3.4-1.7,4.7
			c-0.8,0.9-1.9,1.5-3.3,2c2.2,0.5,3.8,1.4,4.8,2.7c1,1.3,1.5,2.9,1.5,4.9c0,1.6-0.4,3-1.1,4.3c-0.7,1.3-1.8,2.3-3,3
			c-0.8,0.5-2,0.8-3.6,1c-2.1,0.3-3.5,0.4-4.2,0.4l-16.3,0L94.8,10.6z M104.3,22.6l4.1,0c1.5,0,2.5-0.2,3.1-0.8
			c0.6-0.5,0.9-1.2,0.9-2.2c0-0.9-0.3-1.6-0.9-2.1c-0.6-0.5-1.6-0.8-3-0.8l-4.2,0L104.3,22.6z M104.3,34.7l4.8,0
			c1.6,0,2.8-0.3,3.4-0.9c0.7-0.6,1-1.4,1-2.3c0-0.9-0.3-1.6-1-2.2c-0.7-0.6-1.8-0.8-3.5-0.8l-4.8,0L104.3,34.7z"/>
		<path class="st1" d="M124.4,19.1l8,0l0,3.6c0.8-1.6,1.6-2.7,2.4-3.2c0.8-0.6,1.8-0.9,3-0.9c1.3,0,2.6,0.4,4.1,1.2l-2.6,6
			c-1-0.4-1.8-0.6-2.4-0.6c-1.1,0-2,0.5-2.6,1.4c-0.9,1.3-1.3,3.7-1.3,7.3l0,7.4l-8.5,0L124.4,19.1z"/>
		<path class="st1" d="M139.7,30.3c0-3.4,1.2-6.2,3.5-8.4c2.3-2.2,5.4-3.3,9.3-3.3c4.4,0,7.8,1.3,10.1,3.9c1.8,2.1,2.7,4.6,2.7,7.7
			c0,3.4-1.1,6.2-3.4,8.4c-2.3,2.2-5.4,3.3-9.4,3.2c-3.6,0-6.4-0.9-8.6-2.7C141,36.9,139.7,33.9,139.7,30.3 M148.2,30.3
			c0,2,0.4,3.4,1.2,4.4c0.8,0.9,1.8,1.4,3,1.4c1.2,0,2.2-0.5,3-1.4c0.8-0.9,1.2-2.4,1.2-4.5c0-1.9-0.4-3.4-1.2-4.3
			c-0.8-0.9-1.8-1.4-2.9-1.4c-1.2,0-2.3,0.5-3.1,1.4C148.6,26.9,148.2,28.4,148.2,30.3"/>
		<path class="st1" d="M176.3,10.8l0,8.4l4.7,0l0,6.2l-4.7,0l0,7.9c0,0.9,0.1,1.6,0.3,1.9c0.3,0.5,0.8,0.7,1.5,0.7
			c0.6,0,1.5-0.2,2.6-0.5l0.6,5.9c-2.1,0.5-4.1,0.7-5.9,0.7c-2.1,0-3.7-0.3-4.7-0.8c-1-0.5-1.7-1.4-2.2-2.5
			c-0.5-1.1-0.7-2.9-0.7-5.4l0-7.8l-3.1,0l0-6.2l3.1,0l0-4.1L176.3,10.8z"/>
		<path class="st1" d="M181.9,10.8l8.5,0l0,11.3c1.2-1.2,2.3-2,3.5-2.6c1.1-0.5,2.5-0.8,4.1-0.8c2.3,0,4.1,0.7,5.5,2.1
			c1.3,1.4,2,3.6,2,6.5l0,14.1l-8.5,0l0-12.2c0-1.4-0.2-2.4-0.8-3c-0.5-0.6-1.2-0.9-2.2-0.9c-1,0-1.9,0.4-2.5,1.2
			c-0.6,0.8-1,2.2-1,4.2l0,10.7l-8.5,0L181.9,10.8z"/>
		<path class="st1" d="M231.7,32.6l-17,0c0.1,1.4,0.5,2.4,1.1,3.1c0.8,1,1.9,1.4,3.2,1.4c0.8,0,1.6-0.2,2.4-0.6
			c0.5-0.3,1-0.7,1.5-1.4l8.4,0.8c-1.3,2.2-2.8,3.8-4.6,4.8c-1.8,1-4.4,1.4-7.8,1.4c-2.9,0-5.2-0.4-6.9-1.3c-1.7-0.8-3.1-2.2-4.2-4
			c-1.1-1.8-1.6-3.9-1.6-6.4c0-3.5,1.1-6.3,3.4-8.4c2.2-2.1,5.3-3.2,9.2-3.2c3.2,0,5.7,0.5,7.5,1.5c1.8,1,3.2,2.4,4.2,4.2
			c1,1.8,1.4,4.2,1.4,7.1L231.7,32.6z M223.1,28.5c-0.2-1.6-0.6-2.8-1.3-3.5c-0.7-0.7-1.7-1.1-2.8-1.1c-1.3,0-2.4,0.5-3.2,1.6
			c-0.5,0.7-0.8,1.7-1,3L223.1,28.5z"/>
		<path class="st1" d="M232.6,19.4l8,0l0,3.6c0.8-1.6,1.6-2.7,2.4-3.2c0.8-0.6,1.8-0.9,3-0.9c1.3,0,2.6,0.4,4.1,1.2l-2.6,6
			c-1-0.4-1.8-0.6-2.4-0.6c-1.1,0-2,0.5-2.6,1.4c-0.9,1.3-1.3,3.7-1.3,7.3l0,7.4l-8.5,0L232.6,19.4z"/>
		<path class="st1" d="M247.8,35.5l8.4-0.8c0.4,1,0.8,1.7,1.5,2.2c0.6,0.4,1.5,0.6,2.5,0.7c1.1,0,2-0.2,2.7-0.7
			c0.5-0.4,0.7-0.8,0.7-1.4c0-0.6-0.3-1.1-1-1.4c-0.5-0.2-1.7-0.5-3.7-0.9c-2.9-0.5-5-1-6.1-1.4c-1.1-0.4-2.1-1.2-2.9-2.2
			c-0.8-1-1.2-2.2-1.2-3.6c0-1.5,0.4-2.7,1.3-3.8c0.9-1.1,2-1.8,3.5-2.4c1.5-0.5,3.5-0.8,6-0.8c2.6,0,4.6,0.2,5.9,0.6
			c1.3,0.4,2.3,1,3.1,1.9c0.8,0.9,1.5,2,2.1,3.5l-8.1,0.8c-0.2-0.7-0.6-1.2-1-1.6c-0.7-0.5-1.5-0.7-2.4-0.7c-1,0-1.7,0.2-2.1,0.5
			c-0.4,0.3-0.7,0.8-0.7,1.2c0,0.5,0.3,1,0.8,1.2c0.6,0.3,1.8,0.5,3.6,0.8c2.8,0.3,4.9,0.8,6.3,1.3c1.4,0.6,2.4,1.4,3.2,2.5
			c0.7,1.1,1.1,2.2,1.1,3.5c0,1.3-0.4,2.5-1.2,3.7c-0.8,1.2-2,2.2-3.7,2.9c-1.7,0.7-3.9,1.1-6.8,1.1c-4.1,0-6.9-0.6-8.7-1.8
			C249.4,39.3,248.3,37.6,247.8,35.5"/>
	</g>
</g>
</svg>
