<svg width="30" height="31" viewBox="0 0 30 31" fill="none" xmlns="http://www.w3.org/2000/svg">
<rect width="30" height="30" transform="translate(0 0.5)" fill="#F7422F"/>
<path d="M21.06 17.16L19.16 17.8C19.64 18.8 20.12 19.9 20.56 21.1C19.06 21.46 17.54 21.74 15.98 21.92C17.14 19.64 18.3 16.88 19.46 13.66L17.4 12.94C15.54 18.74 14.14 21.8 13.2 22.12L13.58 24.12C16.36 23.84 18.9 23.44 21.2 22.92C21.4 23.48 21.58 24.08 21.78 24.72L23.74 23.84C22.98 21.46 22.08 19.24 21.06 17.16ZM10.78 15.32C11.22 16.04 11.72 16.96 12.32 18.04L13.56 16.18C12.62 14.94 11.7 13.84 10.78 12.84V11.78H12.94V9.76H10.78V6.08H8.72V9.76H6.04V11.78H8.72C8.08 14.04 7.06 16.04 5.66 17.8L6.56 20.12C7.4 18.8 8.12 17.36 8.72 15.8V24.52H10.78V15.32ZM15.38 7.06C14.82 10.22 13.9 12.66 12.6 14.36L14.18 15.74C15.58 13.9 16.64 11.18 17.32 7.58L15.38 7.06ZM18.3 6.7V8.66H19.86C20.38 11.72 21.36 14.28 22.82 16.32L24.42 14.88C22.9 12.78 21.92 10.06 21.52 6.7H18.3Z" fill="white"/>
</svg>
