<svg width="369" height="129" viewBox="0 0 369 129" fill="none" xmlns="http://www.w3.org/2000/svg" >
<circle r="50.4" transform="matrix(-1 0 0 1 64.3998 63.9496)" fill="#FF6B00" fill-opacity="0.8 "/>
<g filter="url(#filter0_d_148:393) ">
<path fill-rule="evenodd" clip-rule="evenodd" d="M14.2525 64.5687H12.9188C12.9188 35.9458 36.2147 12.749 64.9358 12.749C93.675 12.749 116.962 35.9458 116.962 64.5687C116.962 93.1925 93.675 116.389 64.9358 116.389C36.2147 116.389 12.9188 93.1925 12.9188 64.5687H15.5953C15.5953 78.1416 21.1107 90.4177 30.0415 99.3162C38.9814 108.212 51.3097 113.711 64.9358 113.712C78.5709 113.711 90.8993 108.212 99.8392 99.3162C108.77 90.4177 114.285 78.1416 114.285 64.5687C114.285 50.9967 108.77 38.7206 99.8392 29.8231C90.8993 20.9274 78.5709 15.4274 64.9358 15.4274C51.3097 15.4274 38.9814 20.9274 30.0415 29.8231C21.1107 38.7206 15.5953 50.9967 15.5953 64.5687H14.2525Z" fill="#FF6B00"/>
</g>
<path fill-rule="evenodd" clip-rule="evenodd" d="M369 83.6515H363.554V44.3416H369V83.6515Z" fill="#FF6B00"/>
<path fill-rule="evenodd" clip-rule="evenodd" d="M269.553 100.974V98.5886H111.696C110.697 99.9799 110.57 100.221 109 100.974H269.553Z" fill="#FF6B00"/>
<path fill-rule="evenodd" clip-rule="evenodd" d="M269.752 27.4345V29.8196H111.895C110.897 28.4283 110.77 28.1873 109.199 27.4345H269.752Z" fill="#FF6B00"/>
<path fill-rule="evenodd" clip-rule="evenodd" d="M351.028 100.974H276.742V98.5886H351.028V100.974Z" fill="#FF6B00"/>
<path fill-rule="evenodd" clip-rule="evenodd" d="M351.028 29.8196H276.742V27.4346H351.028V29.8196Z" fill="#FF6B00"/>
<path fill-rule="evenodd" clip-rule="evenodd" d="M369 90.2384H363.571V95.6192H358.142V101H369V90.2384Z" fill="#FF6B00"/>
<path fill-rule="evenodd" clip-rule="evenodd" d="M358.142 27V32.3904H363.571V37.7607H369V27H358.142Z" fill="#FF6B00"/>
<g filter="url(#filter1_d_148:393) drop-shadow(1px 1px 5px white)">
<path fill-rule="evenodd" clip-rule="evenodd" d="M41.9375 11.9524C39.9729 12.8031 38.0263 13.7647 36.1248 14.8579C34.2233 15.951 32.4119 17.1451 30.6816 18.4212L29.9876 17.4866C31.754 16.1853 33.6014 14.9669 35.539 13.8503C37.4856 12.7337 39.4682 11.7532 41.4779 10.8854L41.9375 11.9524Z" fill="#FF6B00"/>
<path fill-rule="evenodd" clip-rule="evenodd" d="M87.9437 117.197C89.9173 116.336 91.8549 115.374 93.7564 114.281V114.281C95.6579 113.178 97.4693 111.983 99.1996 110.715L99.8845 111.654C98.1272 112.943 96.2797 114.161 94.3422 115.287L94.3332 115.288C92.3956 116.405 90.4129 117.386 88.4123 118.262L87.9437 117.197Z" fill="#FF6B00"/>
<path fill-rule="evenodd" clip-rule="evenodd" d="M18.5962 30.4585C17.3255 32.1824 16.1179 33.9857 15.0275 35.8765C13.928 37.7699 12.9637 39.7029 12.0986 41.6675L11.0352 41.2034C11.9093 39.2001 12.9006 37.2264 14.0181 35.2934C15.1446 33.3603 16.3702 31.5219 17.6589 29.769L18.5962 30.4585Z" fill="#FF6B00"/>
<path fill-rule="evenodd" clip-rule="evenodd" d="M111.285 98.6782C112.556 96.956 113.754 95.1536 114.854 93.2611C115.953 91.3695 116.917 89.4364 117.783 87.4691L118.846 87.9359C117.972 89.9384 116.98 91.912 115.863 93.8451C114.736 95.7772 113.511 97.6157 112.213 99.3703L111.285 98.6782Z" fill="#FF6B00"/>
<path fill-rule="evenodd" clip-rule="evenodd" d="M7.68311 58.1C7.43978 60.2277 7.3046 62.3843 7.3046 64.5688C7.3046 66.7551 7.43978 68.9108 7.68311 71.0385L6.52957 71.1701C6.27724 69.0027 6.14206 66.8029 6.14206 64.5688C6.14206 62.3365 6.27724 60.1358 6.52957 57.9675L7.68311 58.1Z" fill="#FF6B00"/>
<path fill-rule="evenodd" clip-rule="evenodd" d="M122.197 71.0393C122.441 68.9107 122.576 66.7541 122.576 64.5687C122.576 62.3842 122.441 60.2276 122.197 58.0981L123.36 57.9692C123.594 60.1366 123.739 62.3355 123.739 64.5687C123.739 66.8028 123.594 69.0026 123.36 71.1682L122.197 71.0393Z" fill="#FF6B00"/>
<path fill-rule="evenodd" clip-rule="evenodd" d="M12.1078 87.47C12.964 89.4364 13.9283 91.3694 15.0277 93.262C16.1272 95.1536 17.3258 96.956 18.6055 98.6782L17.6682 99.3703C16.3705 97.6156 15.1449 95.7772 14.0184 93.845C12.9009 91.912 11.9186 89.9383 11.0444 87.935L12.1078 87.47Z" fill="#FF6B00"/>
<path fill-rule="evenodd" clip-rule="evenodd" d="M117.783 41.6694C116.917 39.703 115.953 37.769 114.854 35.8774C113.754 33.9858 112.556 32.1825 111.285 30.4594L112.213 29.7682C113.511 31.5219 114.736 33.3613 115.863 35.2934C116.98 37.2274 117.972 39.2001 118.846 41.2017L117.783 41.6694Z" fill="#FF6B00"/>
<path fill-rule="evenodd" clip-rule="evenodd" d="M30.6816 110.715C32.4119 111.983 34.2233 113.178 36.1248 114.281V114.281C38.0263 115.374 39.9729 116.336 41.9375 117.197L41.4779 118.262C39.4682 117.386 37.4856 116.405 35.539 115.288V115.287C33.6014 114.161 31.754 112.943 29.9966 111.654L30.6816 110.715Z" fill="#FF6B00"/>
<path fill-rule="evenodd" clip-rule="evenodd" d="M99.1994 18.4221C97.4691 17.146 95.6577 15.9609 93.7562 14.856V14.8579C91.8546 13.7647 89.9171 12.8031 87.9434 11.9524L88.4031 10.8854C90.4127 11.7532 92.3954 12.7337 94.3419 13.8494V13.8512C96.2795 14.9768 98.127 16.1844 99.8933 17.4866L99.1994 18.4221Z" fill="#FF6B00"/>
<path fill-rule="evenodd" clip-rule="evenodd" d="M56.4021 7.81052C54.2753 8.13496 52.1485 8.56032 50.0216 9.12717C47.9038 9.69312 45.8491 10.3825 43.8394 11.163L43.4159 10.0797C45.4616 9.28578 47.5614 8.58285 49.7242 8.00428C51.8871 7.42481 54.059 6.99134 56.2219 6.6615L56.4021 7.81052Z" fill="#FF6B00"/>
<path fill-rule="evenodd" clip-rule="evenodd" d="M73.4883 121.328C75.6151 121.003 77.742 120.578 79.8598 120.011C81.9866 119.445 84.0413 118.756 86.033 117.975L86.4565 119.058C84.4289 119.853 82.3291 120.556 80.1572 121.135C77.9943 121.714 75.8224 122.147 73.6596 122.477L73.4883 121.328Z" fill="#FF6B00"/>
<path fill-rule="evenodd" clip-rule="evenodd" d="M29.0505 19.6666C27.3653 21.0049 25.7431 22.4324 24.1931 23.9798C22.634 25.528 21.2011 27.1484 19.8583 28.821L18.9481 28.0928C20.3179 26.3914 21.7779 24.7386 23.373 23.157C24.9501 21.5754 26.6173 20.119 28.3206 18.7573L29.0505 19.6666Z" fill="#FF6B00"/>
<path fill-rule="evenodd" clip-rule="evenodd" d="M100.839 109.472C102.516 108.134 104.138 106.706 105.697 105.158C107.247 103.61 108.68 101.99 110.023 100.317L110.933 101.046C109.563 102.747 108.103 104.4 106.517 105.981C104.931 107.563 103.273 109.019 101.56 110.382L100.839 109.472Z" fill="#FF6B00"/>
<path fill-rule="evenodd" clip-rule="evenodd" d="M11.3147 43.5592C10.5307 45.5571 9.83673 47.6029 9.26898 49.7171C8.70123 51.8313 8.26865 53.9473 7.95323 56.066L6.7997 55.8921C7.13314 53.7355 7.56572 51.5753 8.14249 49.4152C8.72826 47.2541 9.44021 45.1678 10.2333 43.1356L11.3147 43.5592Z" fill="#FF6B00"/>
<path fill-rule="evenodd" clip-rule="evenodd" d="M118.567 85.5766C119.36 83.5805 120.045 81.5356 120.613 79.4214C121.18 77.3072 121.613 75.1912 121.928 73.0725L123.082 73.2473C122.748 75.4039 122.316 77.5623 121.739 79.7233C121.153 81.8844 120.45 83.9707 119.648 86.0038L118.567 85.5766Z" fill="#FF6B00"/>
<path fill-rule="evenodd" clip-rule="evenodd" d="M7.94422 73.0725C8.26865 75.1903 8.70123 77.3063 9.26898 79.4214C9.83673 81.5356 10.5307 83.5805 11.3147 85.5676L10.2333 85.9939C9.4312 83.9707 8.72826 81.8844 8.14249 79.7233C7.56572 77.5632 7.12413 75.4039 6.7997 73.2473L7.94422 73.0725Z" fill="#FF6B00"/>
<path fill-rule="evenodd" clip-rule="evenodd" d="M121.928 56.066C121.613 53.9472 121.18 51.8312 120.613 49.7161C120.045 47.6019 119.36 45.558 118.567 43.561L119.648 43.1338C120.45 45.1669 121.153 47.2541 121.739 49.4151C122.316 51.5753 122.748 53.7355 123.082 55.8911L121.928 56.066Z" fill="#FF6B00"/>
<path fill-rule="evenodd" clip-rule="evenodd" d="M19.8583 100.317C21.2011 101.99 22.634 103.609 24.1931 105.158C25.7431 106.706 27.3653 108.133 29.0505 109.473L28.3206 110.381C26.6173 109.019 24.9501 107.563 23.373 105.981C21.7779 104.4 20.3179 102.747 18.9481 101.046L19.8583 100.317Z" fill="#FF6B00"/>
<path fill-rule="evenodd" clip-rule="evenodd" d="M110.023 28.821C108.68 27.1475 107.247 25.528 105.697 23.9807C104.138 22.4324 102.516 21.0049 100.839 19.6666L101.56 18.7573C103.273 20.119 104.931 21.5754 106.517 23.157C108.103 24.7386 109.563 26.3914 110.933 28.0928L110.023 28.821Z" fill="#FF6B00"/>
<path fill-rule="evenodd" clip-rule="evenodd" d="M43.8394 117.975C45.8491 118.756 47.9038 119.445 50.0216 120.011C52.1485 120.578 54.2753 121.003 56.4021 121.328L56.2219 122.477C54.059 122.147 51.8871 121.714 49.7242 121.135C47.5614 120.556 45.4616 119.853 43.4159 119.059L43.8394 117.975Z" fill="#FF6B00"/>
<path fill-rule="evenodd" clip-rule="evenodd" d="M86.033 11.1621C84.0413 10.3825 81.9776 9.69312 79.8598 9.12717C77.742 8.56032 75.6151 8.13496 73.4883 7.81052L73.6596 6.6615C75.8224 6.99134 77.9943 7.42481 80.1572 8.00428C82.3291 8.58285 84.4198 9.28578 86.4565 10.0797L86.033 11.1621Z" fill="#FF6B00"/>
<g filter="url(#filter2_d_148:393) drop-shadow(1px 1px 5px white)">
<path fill-rule="evenodd" clip-rule="evenodd" d="M71.4339 7.53654C69.3071 7.29412 67.1442 7.16254 64.9363 7.16254C62.7464 7.16254 60.5745 7.29412 58.4477 7.53654L58.3125 6.38211C60.4844 6.13428 62.7013 6 64.9363 6C67.1893 6 69.3972 6.13428 71.5691 6.38211L71.4339 7.53654Z" fill="#FF6B00"/>
</g>
<g filter="url(#filter3_d_148:393) drop-shadow(1px 1px 5px white)">
<path fill-rule="evenodd" clip-rule="evenodd" d="M58.4477 121.601C60.5745 121.844 62.7464 121.976 64.9363 121.976C67.1442 121.976 69.3071 121.844 71.4339 121.601L71.5691 122.755C69.3972 123.003 67.1893 123.138 64.9363 123.138C62.7013 123.138 60.4844 123.003 58.3125 122.755L58.4477 121.601Z" fill="#FF6B00"/>
</g>
</g>
<g filter="url(#filter4_i_148:393)">
<path fill-rule="evenodd" clip-rule="evenodd" d="M123.34 93C127.575 85.0443 129.963 76.0388 129.963 66.5C129.963 54.9022 126.433 44.0927 120.345 35H357C358.105 35 359 35.8954 359 37V91C359 92.1046 358.105 93 357 93H123.34Z" fill="#FF6B00" fill-opacity="0.27"/>
</g>
<defs>
<filter id="filter0_d_148:393" x="0.918701" y="0.749023" width="128.043" height="127.64" filterUnits="userSpaceOnUse" color-interpolation-filters="sRGB">
<feFlood flood-opacity="0" result="BackgroundImageFix"/>
<feColorMatrix in="SourceAlpha" type="matrix" values="0 0 0 0 0 0 0 0 0 0 0 0 0 0 0 0 0 0 127 0" result="hardAlpha"/>
<feOffset/>
<feGaussianBlur stdDeviation="6"/>
<feColorMatrix type="matrix" values="0 0 0 0 1 0 0 0 0 0.419608 0 0 0 0 0 0 0 0 1 0"/>
<feBlend mode="normal" in2="BackgroundImageFix" result="effect1_dropShadow_148:393"/>
<feBlend mode="normal" in="SourceGraphic" in2="effect1_dropShadow_148:393" result="shape"/>
</filter>
<filter id="filter1_d_148:393" x="2.14209" y="2" width="125.596" height="125.138" filterUnits="userSpaceOnUse" color-interpolation-filters="sRGB">
<feFlood flood-opacity="0" result="BackgroundImageFix"/>
<feColorMatrix in="SourceAlpha" type="matrix" values="0 0 0 0 0 0 0 0 0 0 0 0 0 0 0 0 0 0 127 0" result="hardAlpha"/>
<feOffset/>
<feGaussianBlur stdDeviation="2"/>
<feColorMatrix type="matrix" values="0 0 0 0 0.996078 0 0 0 0 0.202353 0 0 0 0 0.0941176 0 0 0 0.8 0"/>
<feBlend mode="normal" in2="BackgroundImageFix" result="effect1_dropShadow_148:393"/>
<feBlend mode="normal" in="SourceGraphic" in2="effect1_dropShadow_148:393" result="shape"/>
</filter>
<filter id="filter2_d_148:393" x="54.3125" y="2" width="21.2566" height="9.5365" filterUnits="userSpaceOnUse" color-interpolation-filters="sRGB">
<feFlood flood-opacity="0" result="BackgroundImageFix"/>
<feColorMatrix in="SourceAlpha" type="matrix" values="0 0 0 0 0 0 0 0 0 0 0 0 0 0 0 0 0 0 127 0" result="hardAlpha"/>
<feOffset/>
<feGaussianBlur stdDeviation="2"/>
<feColorMatrix type="matrix" values="0 0 0 0 0.996078 0 0 0 0 0.256471 0 0 0 0 0.0941176 0 0 0 1 0"/>
<feBlend mode="normal" in2="BackgroundImageFix" result="effect1_dropShadow_148:393"/>
<feBlend mode="normal" in="SourceGraphic" in2="effect1_dropShadow_148:393" result="shape"/>
</filter>
<filter id="filter3_d_148:393" x="54.3125" y="117.601" width="21.2566" height="9.53748" filterUnits="userSpaceOnUse" color-interpolation-filters="sRGB">
<feFlood flood-opacity="0" result="BackgroundImageFix"/>
<feColorMatrix in="SourceAlpha" type="matrix" values="0 0 0 0 0 0 0 0 0 0 0 0 0 0 0 0 0 0 127 0" result="hardAlpha"/>
<feOffset/>
<feGaussianBlur stdDeviation="2"/>
<feColorMatrix type="matrix" values="0 0 0 0 0.996078 0 0 0 0 0.256471 0 0 0 0 0.0941176 0 0 0 1 0"/>
<feBlend mode="normal" in2="BackgroundImageFix" result="effect1_dropShadow_148:393"/>
<feBlend mode="normal" in="SourceGraphic" in2="effect1_dropShadow_148:393" result="shape"/>
</filter>
<filter id="filter4_i_148:393" x="120.345" y="35" width="238.655" height="58" filterUnits="userSpaceOnUse" color-interpolation-filters="sRGB">
<feFlood flood-opacity="0" result="BackgroundImageFix"/>
<feBlend mode="normal" in="SourceGraphic" in2="BackgroundImageFix" result="shape"/>
<feColorMatrix in="SourceAlpha" type="matrix" values="0 0 0 0 0 0 0 0 0 0 0 0 0 0 0 0 0 0 127 0" result="hardAlpha"/>
<feMorphology radius="4" operator="erode" in="SourceAlpha" result="effect1_innerShadow_148:393"/>
<feOffset/>
<feGaussianBlur stdDeviation="5"/>
<feComposite in2="hardAlpha" operator="arithmetic" k2="-1" k3="1"/>
<feColorMatrix type="matrix" values="0 0 0 0 1 0 0 0 0 0.6 0 0 0 0 0 0 0 0 0.1 0"/>
<feBlend mode="normal" in2="shape" result="effect1_innerShadow_148:393"/>
</filter>
</defs>
</svg>
